<mxfile host="app.diagrams.net" modified="2022-04-16T13:19:23.439Z" agent="5.0 (Windows NT 10.0; Win64; x64) AppleWebKit/537.36 (KHTML, like Gecko) Chrome/100.0.4896.88 Safari/537.36" etag="7707jbn1xU5CcgEcyaCq" version="17.1.4" type="github">
  <diagram id="msXhtBopUcJOoAHXw3Rb" name="Page-1">
    <mxGraphModel dx="1102" dy="652" grid="1" gridSize="10" guides="1" tooltips="1" connect="1" arrows="1" fold="1" page="1" pageScale="1" pageWidth="827" pageHeight="1169" math="0" shadow="0">
      <root>
        <mxCell id="0" />
        <mxCell id="1" parent="0" />
        <mxCell id="ENy0YUIahURjMKUibw4l-1" value="" style="shape=table;startSize=0;container=1;collapsible=0;childLayout=tableLayout;" vertex="1" parent="1">
          <mxGeometry x="104" y="90" width="620" height="546" as="geometry" />
        </mxCell>
        <mxCell id="ENy0YUIahURjMKUibw4l-2" value="" style="shape=tableRow;horizontal=0;startSize=0;swimlaneHead=0;swimlaneBody=0;top=0;left=0;bottom=0;right=0;collapsible=0;dropTarget=0;fillColor=none;points=[[0,0.5],[1,0.5]];portConstraint=eastwest;" vertex="1" parent="ENy0YUIahURjMKUibw4l-1">
          <mxGeometry width="620" height="40" as="geometry" />
        </mxCell>
        <mxCell id="ENy0YUIahURjMKUibw4l-3" value="Docente" style="shape=partialRectangle;html=1;whiteSpace=wrap;connectable=0;overflow=hidden;fillColor=#fff2cc;top=0;left=0;bottom=0;right=0;pointerEvents=1;strokeColor=#d6b656;" vertex="1" parent="ENy0YUIahURjMKUibw4l-2">
          <mxGeometry width="310" height="40" as="geometry">
            <mxRectangle width="310" height="40" as="alternateBounds" />
          </mxGeometry>
        </mxCell>
        <mxCell id="ENy0YUIahURjMKUibw4l-4" value="Sistema" style="shape=partialRectangle;html=1;whiteSpace=wrap;connectable=0;overflow=hidden;fillColor=#fff2cc;top=0;left=0;bottom=0;right=0;pointerEvents=1;strokeColor=#d6b656;" vertex="1" parent="ENy0YUIahURjMKUibw4l-2">
          <mxGeometry x="310" width="310" height="40" as="geometry">
            <mxRectangle width="310" height="40" as="alternateBounds" />
          </mxGeometry>
        </mxCell>
        <mxCell id="ENy0YUIahURjMKUibw4l-5" value="" style="shape=tableRow;horizontal=0;startSize=0;swimlaneHead=0;swimlaneBody=0;top=0;left=0;bottom=0;right=0;collapsible=0;dropTarget=0;fillColor=none;points=[[0,0.5],[1,0.5]];portConstraint=eastwest;" vertex="1" parent="ENy0YUIahURjMKUibw4l-1">
          <mxGeometry y="40" width="620" height="506" as="geometry" />
        </mxCell>
        <mxCell id="ENy0YUIahURjMKUibw4l-6" value="" style="shape=partialRectangle;html=1;whiteSpace=wrap;connectable=0;overflow=hidden;fillColor=none;top=0;left=0;bottom=0;right=0;pointerEvents=1;" vertex="1" parent="ENy0YUIahURjMKUibw4l-5">
          <mxGeometry width="310" height="506" as="geometry">
            <mxRectangle width="310" height="506" as="alternateBounds" />
          </mxGeometry>
        </mxCell>
        <mxCell id="ENy0YUIahURjMKUibw4l-7" value="" style="shape=partialRectangle;html=1;whiteSpace=wrap;connectable=0;overflow=hidden;fillColor=none;top=0;left=0;bottom=0;right=0;pointerEvents=1;" vertex="1" parent="ENy0YUIahURjMKUibw4l-5">
          <mxGeometry x="310" width="310" height="506" as="geometry">
            <mxRectangle width="310" height="506" as="alternateBounds" />
          </mxGeometry>
        </mxCell>
        <mxCell id="ENy0YUIahURjMKUibw4l-8" value="" style="ellipse;html=1;shape=startState;fillColor=#000000;strokeColor=#ff0000;" vertex="1" parent="1">
          <mxGeometry x="240" y="140" width="30" height="30" as="geometry" />
        </mxCell>
        <mxCell id="ENy0YUIahURjMKUibw4l-9" value="" style="edgeStyle=orthogonalEdgeStyle;html=1;verticalAlign=bottom;endArrow=open;endSize=8;strokeColor=#ff0000;rounded=0;" edge="1" source="ENy0YUIahURjMKUibw4l-8" parent="1">
          <mxGeometry relative="1" as="geometry">
            <mxPoint x="255" y="230" as="targetPoint" />
          </mxGeometry>
        </mxCell>
        <mxCell id="ENy0YUIahURjMKUibw4l-10" value="Adcionar trabalho" style="rounded=1;whiteSpace=wrap;html=1;arcSize=40;fontColor=#000000;fillColor=#ffffc0;strokeColor=#ff0000;" vertex="1" parent="1">
          <mxGeometry x="195" y="230" width="120" height="40" as="geometry" />
        </mxCell>
        <mxCell id="ENy0YUIahURjMKUibw4l-11" value="" style="edgeStyle=orthogonalEdgeStyle;html=1;verticalAlign=bottom;endArrow=open;endSize=8;strokeColor=#ff0000;rounded=0;" edge="1" source="ENy0YUIahURjMKUibw4l-10" parent="1" target="ENy0YUIahURjMKUibw4l-12">
          <mxGeometry relative="1" as="geometry">
            <mxPoint x="255" y="330" as="targetPoint" />
          </mxGeometry>
        </mxCell>
        <mxCell id="ENy0YUIahURjMKUibw4l-12" value="Requisitar o trabalho" style="rounded=1;whiteSpace=wrap;html=1;arcSize=40;fontColor=#000000;fillColor=#ffffc0;strokeColor=#ff0000;" vertex="1" parent="1">
          <mxGeometry x="500" y="230" width="120" height="40" as="geometry" />
        </mxCell>
        <mxCell id="ENy0YUIahURjMKUibw4l-13" value="" style="edgeStyle=orthogonalEdgeStyle;html=1;verticalAlign=bottom;endArrow=open;endSize=8;strokeColor=#ff0000;rounded=0;" edge="1" source="ENy0YUIahURjMKUibw4l-12" parent="1">
          <mxGeometry relative="1" as="geometry">
            <mxPoint x="550" y="290" as="targetPoint" />
          </mxGeometry>
        </mxCell>
      </root>
    </mxGraphModel>
  </diagram>
</mxfile>
